# Blender v2.66 (sub 1) OBJ File: 'cornell-closed-boxes.blend'
# www.blender.org
v -1.000000 0.000000 1.000000
v -1.000000 0.000000 -1.000000
v 1.000000 0.000000 -1.000000
v 1.000000 0.000000 1.000000
v -1.000000 2.000000 1.000000
v -1.000000 2.000000 -1.000000
v 1.000000 2.000000 -1.000000
v 1.000000 2.000000 1.000000
vn 1.000000 0.000000 -0.000000
vn 0.000000 0.000000 1.000000
vn -1.000000 -0.000000 -0.000000
vn 0.000000 0.000000 -1.000000
vn 0.000000 1.000000 -0.000000
vn 0.000000 -1.000000 0.000000
s off
f 5//1 2//1 6//1
f 6//2 3//2 7//2
f 7//3 4//3 8//3
f 8//4 1//4 5//4
f 1//5 3//5 2//5
f 8//6 6//6 7//6
f 1//1 2//1 5//1
f 2//2 3//2 6//2
f 3//3 4//3 7//3
f 4//4 1//4 8//4
f 4//5 3//5 1//5
f 5//6 6//6 8//6
v 0.012892 -0.008095 0.513752
v 0.316692 -0.008095 -0.003651
v 0.834095 -0.008095 0.300148
v 0.530295 -0.008095 0.817551
v 0.012892 0.591905 0.513752
v 0.316692 0.591905 -0.003651
v 0.834095 0.591905 0.300148
v 0.530295 0.591905 0.817551
vn -0.862338 0.000000 -0.506332
vn 0.506332 0.000000 -0.862338
vn 0.862338 -0.000000 0.506332
vn -0.506332 0.000000 0.862338
s off
f 13//7 14//7 10//7
f 14//8 15//8 11//8
f 15//9 16//9 12//9
f 16//10 13//10 9//10
f 9//6 10//6 11//6
f 16//5 15//5 14//5
f 9//7 13//7 10//7
f 10//8 14//8 11//8
f 11//9 15//9 12//9
f 12//10 16//10 9//10
f 12//6 9//6 11//6
f 13//5 16//5 14//5
v -0.378357 -0.011585 0.179702
v -0.738376 -0.011585 -0.300284
v -0.258390 -0.011585 -0.660303
v 0.101629 -0.011585 -0.180317
v -0.378357 1.188415 0.179702
v -0.738376 1.188415 -0.300284
v -0.258390 1.188415 -0.660303
v 0.101629 1.188415 -0.180317
vn -0.799976 0.000000 0.600032
vn -0.600032 0.000000 -0.799976
vn 0.799976 0.000000 -0.600032
vn 0.600032 -0.000000 0.799976
s off
f 21//11 22//11 18//11
f 22//12 23//12 19//12
f 23//13 24//13 20//13
f 24//14 21//14 17//14
f 17//6 18//6 19//6
f 24//5 23//5 22//5
f 17//11 21//11 18//11
f 18//12 22//12 19//12
f 19//13 23//13 20//13
f 20//14 24//14 17//14
f 20//6 17//6 19//6
f 21//5 24//5 22//5
