# Blender v2.66 (sub 1) OBJ File: 'cornell-empty.blend'
# www.blender.org
v 1.000000 0.000000 1.000000
v -1.000001 0.000000 1.000000
v -1.000000 0.000000 -1.000000
v 1.000000 0.000000 -1.000000
v 1.000000 2.000000 1.000000
v -1.000000 2.000000 1.000000
v -1.000000 2.000000 -1.000000
v 1.000000 2.000000 -1.000000
vn 0.000000 1.000000 0.000000
vn 0.000000 -1.000000 0.000000
vn 1.000000 0.000000 0.000000
vn 0.000000 0.000000 1.000000
vn -1.000000 0.000000 0.000000
s off
f 1//1 3//1 2//1
f 5//2 6//2 8//2
f 2//3 3//3 6//3
f 3//4 8//4 7//4
f 5//5 4//5 1//5
f 4//1 3//1 1//1
f 6//3 3//3 7//3
f 4//4 8//4 3//4
f 8//5 4//5 5//5
f 8//2 6//2 7//2
