# Blender v2.66 (sub 1) OBJ File: 'cornell-empty-blue-yellow.blend'
# www.blender.org
mtllib empty-blue-yellow.mtl
o Walls
v 0.999999 0.000000 1.000001
v -1.000001 0.000000 0.999999
v -0.999999 0.000000 -1.000001
v 1.000001 0.000000 -0.999999
v 0.999999 2.000000 1.000001
v -1.000001 2.000000 0.999999
v -0.999999 2.000000 -1.000001
v 1.000001 2.000000 -0.999999
vn -0.000000 1.000000 0.000000
vn 0.000000 -1.000000 0.000000
vn -0.000001 0.000000 1.000000
vn 1.000000 0.000000 0.000001
vn -1.000000 -0.000000 -0.000001
usemtl Material
s off
f 1//1 3//1 2//1
f 5//2 6//2 8//2
f 3//3 8//3 7//3
f 4//1 3//1 1//1
f 4//3 8//3 3//3
f 8//2 6//2 7//2
usemtl blue
f 2//4 3//4 6//4
f 6//4 3//4 7//4
usemtl yellow
f 5//5 4//5 1//5
f 8//5 4//5 5//5
