# Blender v2.66 (sub 1) OBJ File: 'cornell-single-box-white.blend'
# www.blender.org
mtllib single-box-white.mtl
o Box_small
v -0.300000 -0.015010 0.300000
v -0.300000 -0.015010 -0.300000
v 0.300000 -0.015010 -0.300000
v 0.300000 -0.015010 0.300000
v -0.300000 0.584990 0.300000
v -0.300000 0.584990 -0.300000
v 0.300000 0.584990 -0.300000
v 0.300000 0.584990 0.300000
vn -1.000000 0.000000 0.000000
vn 0.000000 0.000000 -1.000000
vn 1.000000 -0.000000 0.000000
vn 0.000000 0.000000 1.000000
vn 0.000000 -1.000000 0.000000
vn 0.000000 1.000000 0.000000
usemtl Material.001
s off
f 5//1 6//1 2//1
f 6//2 7//2 3//2
f 7//3 8//3 4//3
f 8//4 5//4 1//4
f 1//5 2//5 3//5
f 8//6 7//6 6//6
f 1//1 5//1 2//1
f 2//2 6//2 3//2
f 3//3 7//3 4//3
f 4//4 8//4 1//4
f 4//5 1//5 3//5
f 5//6 8//6 6//6
o Walls
v 0.999999 0.000000 1.000001
v -1.000001 0.000000 0.999999
v -0.999999 0.000000 -1.000001
v 1.000001 0.000000 -0.999999
v 0.999999 2.000000 1.000001
v -1.000001 2.000000 0.999999
v -0.999999 2.000000 -1.000001
v 1.000001 2.000000 -0.999999
vn -0.000001 0.000000 1.000000
vn 1.000000 0.000000 0.000001
vn -1.000000 -0.000000 -0.000001
usemtl Material
s off
f 9//6 11//6 10//6
f 13//5 14//5 16//5
f 11//7 16//7 15//7
f 12//6 11//6 9//6
f 12//7 16//7 11//7
f 16//5 14//5 15//5
usemtl red
f 10//8 11//8 14//8
f 14//8 11//8 15//8
usemtl blue
f 13//9 12//9 9//9
f 16//9 12//9 13//9
