# Blender v2.66 (sub 1) OBJ File: 'eval-sphere.blend'
# www.blender.org
mtllib eval-sphere.mtl
o Cube
v 0.003685 -0.000022 3.422448
v 0.003685 -0.000022 0.922448
v 0.203685 -0.000022 0.922448
v 0.203685 -0.000022 3.422448
v 0.003685 0.099978 3.422448
v 0.003685 0.099978 0.922448
v 0.203685 0.099978 0.922448
v 0.203685 0.099978 3.422448
vn -1.000000 0.000000 0.000000
vn 0.000000 0.000000 -1.000000
vn 1.000000 -0.000000 0.000000
vn 0.000000 0.000000 1.000000
vn 0.000000 -1.000000 0.000000
vn 0.000000 1.000000 0.000000
usemtl Balken
s off
f 5//1 6//1 1//1
f 6//2 7//2 3//2
f 7//3 8//3 4//3
f 8//4 5//4 1//4
f 1//5 2//5 3//5
f 8//6 7//6 6//6
f 6//1 2//1 1//1
f 2//2 6//2 3//2
f 3//3 7//3 4//3
f 4//4 8//4 1//4
f 4//5 1//5 3//5
f 5//6 8//6 6//6
o Sphere
v -0.105962 0.883620 1.041672
v -0.202400 0.843674 1.041672
v -0.285213 0.780129 1.041672
v -0.348758 0.697316 1.041672
v -0.388704 0.600878 1.041672
v -0.402328 0.497388 1.041672
v -0.388704 0.393897 1.041672
v -0.348758 0.297459 1.041672
v -0.285213 0.214646 1.041672
v -0.202400 0.151101 1.041672
v -0.105962 0.111156 1.041672
v -0.002472 0.097531 1.041672
v -0.092097 0.883620 0.989927
v -0.175615 0.843674 0.941708
v -0.247333 0.780129 0.900302
v -0.302364 0.697316 0.868529
v -0.336958 0.600878 0.848556
v -0.348758 0.497388 0.841744
v -0.336958 0.393897 0.848556
v -0.302364 0.297459 0.868529
v -0.247333 0.214646 0.900301
v -0.175615 0.151101 0.941708
v -0.092097 0.111156 0.989927
v -0.054217 0.883620 0.952047
v -0.102436 0.843674 0.868529
v -0.143842 0.780129 0.796811
v -0.175615 0.697316 0.741780
v -0.195588 0.600878 0.707186
v -0.202400 0.497388 0.695386
v -0.195588 0.393897 0.707186
v -0.175615 0.297459 0.741780
v -0.143842 0.214646 0.796811
v -0.102436 0.151101 0.868529
v -0.054217 0.111156 0.952047
v -0.002472 0.883620 0.938182
v -0.002472 0.843674 0.841744
v -0.002472 0.780129 0.758931
v -0.002472 0.697316 0.695386
v -0.002472 0.600878 0.655440
v -0.002472 0.497388 0.641815
v -0.002472 0.393897 0.655440
v -0.002472 0.297459 0.695386
v -0.002472 0.214646 0.758931
v -0.002472 0.151101 0.841744
v -0.002472 0.111156 0.938182
v -0.002472 0.897245 1.041672
v 0.049274 0.883620 0.952047
v 0.097493 0.843674 0.868529
v 0.138899 0.780129 0.796811
v 0.170672 0.697316 0.741780
v 0.190644 0.600878 0.707186
v 0.197457 0.497388 0.695386
v 0.190644 0.393897 0.707186
v 0.170672 0.297459 0.741780
v 0.138899 0.214646 0.796811
v 0.097493 0.151101 0.868529
v 0.049274 0.111156 0.952047
v 0.087154 0.883620 0.989927
v 0.170671 0.843674 0.941708
v 0.242390 0.780129 0.900302
v 0.297421 0.697316 0.868529
v 0.332015 0.600878 0.848556
v 0.343815 0.497388 0.841744
v 0.332015 0.393897 0.848556
v 0.297421 0.297459 0.868529
v 0.242390 0.214646 0.900302
v 0.170672 0.151101 0.941708
v 0.087154 0.111156 0.989927
v 0.101019 0.883620 1.041672
v 0.197457 0.843674 1.041672
v 0.280270 0.780129 1.041672
v 0.343815 0.697316 1.041672
v 0.383760 0.600878 1.041672
v 0.397385 0.497388 1.041672
v 0.383760 0.393897 1.041672
v 0.343815 0.297459 1.041672
v 0.280270 0.214646 1.041672
v 0.197457 0.151101 1.041672
v 0.101019 0.111156 1.041672
v 0.087154 0.883620 1.093417
v 0.170671 0.843674 1.141636
v 0.242390 0.780129 1.183043
v 0.297421 0.697316 1.214815
v 0.332015 0.600878 1.234788
v 0.343815 0.497388 1.241601
v 0.332015 0.393897 1.234788
v 0.297421 0.297459 1.214815
v 0.242390 0.214646 1.183043
v 0.170672 0.151101 1.141636
v 0.087154 0.111156 1.093418
v 0.049274 0.883620 1.131298
v 0.097493 0.843674 1.214815
v 0.138899 0.780129 1.286533
v 0.170671 0.697316 1.341565
v 0.190644 0.600878 1.376159
v 0.197457 0.497388 1.387958
v 0.190644 0.393897 1.376159
v 0.170672 0.297459 1.341565
v 0.138899 0.214646 1.286533
v 0.097493 0.151101 1.214815
v 0.049274 0.111156 1.131298
v -0.002472 0.883620 1.145163
v -0.002472 0.843674 1.241601
v -0.002472 0.780129 1.324414
v -0.002472 0.697316 1.387958
v -0.002472 0.600878 1.427904
v -0.002472 0.497388 1.441529
v -0.002472 0.393897 1.427904
v -0.002472 0.297459 1.387958
v -0.002472 0.214646 1.324414
v -0.002472 0.151101 1.241601
v -0.002472 0.111156 1.145163
v -0.054217 0.883620 1.131298
v -0.102436 0.843674 1.214815
v -0.143842 0.780129 1.286533
v -0.175615 0.697316 1.341565
v -0.195588 0.600878 1.376159
v -0.202400 0.497388 1.387958
v -0.195588 0.393897 1.376159
v -0.175615 0.297459 1.341565
v -0.143842 0.214646 1.286533
v -0.102436 0.151101 1.214815
v -0.054217 0.111156 1.131298
v -0.092097 0.883620 1.093417
v -0.175615 0.843674 1.141636
v -0.247333 0.780129 1.183043
v -0.302364 0.697316 1.214815
v -0.336958 0.600878 1.234788
v -0.348758 0.497388 1.241601
v -0.336958 0.393897 1.234788
v -0.302364 0.297459 1.214815
v -0.247333 0.214646 1.183043
v -0.175615 0.151101 1.141636
v -0.092097 0.111156 1.093418
vn -0.717582 -0.696432 0.000000
vn -0.871212 -0.490860 0.000000
vn -0.621448 -0.696432 -0.358776
vn -0.717582 0.696432 0.000000
vn -0.515915 0.856624 0.000000
vn -0.621448 0.696432 -0.358776
vn -0.515915 -0.856624 0.000000
vn -0.446791 -0.856624 -0.257942
vn -0.871212 0.490860 0.000000
vn -0.754479 0.490860 -0.435591
vn -0.278848 -0.960326 0.000000
vn -0.241493 -0.960326 -0.139409
vn -0.967284 0.253578 0.000000
vn -0.837703 0.253578 -0.483627
vn -0.866024 0.000000 -0.499985
vn -0.967284 -0.253578 0.000000
vn -0.837703 -0.253578 -0.483627
vn -0.754479 -0.490860 -0.435591
vn -0.278848 0.960326 0.000000
vn -0.446791 0.856624 -0.257942
vn -0.358776 -0.696432 -0.621448
vn -0.358776 0.696432 -0.621448
vn -0.257942 -0.856624 -0.446791
vn -0.435591 0.490860 -0.754479
vn -0.139409 -0.960326 -0.241493
vn -0.483627 0.253578 -0.837703
vn -0.499985 0.000000 -0.866024
vn -0.483627 -0.253578 -0.837703
vn -0.435591 -0.490860 -0.754479
vn -0.241493 0.960326 -0.139409
vn -0.257942 0.856624 -0.446791
vn 0.000000 -0.696432 -0.717582
vn 0.000000 0.696432 -0.717582
vn 0.000000 -0.856624 -0.515915
vn 0.000000 0.490860 -0.871212
vn 0.000000 -0.960326 -0.278848
vn 0.000000 0.253578 -0.967284
vn 0.000000 0.000000 -0.999969
vn 0.000000 -0.253578 -0.967284
vn 0.000000 -0.490860 -0.871212
vn -0.139409 0.960326 -0.241493
vn 0.000000 0.856624 -0.515915
vn 0.483627 -0.253578 -0.837703
vn 0.000000 0.960326 -0.278848
vn 0.139409 0.960326 -0.241493
vn 0.435591 -0.490860 -0.754479
vn 0.257942 0.856624 -0.446791
vn 0.358776 -0.696432 -0.621448
vn 0.358776 0.696432 -0.621448
vn 0.257942 -0.856624 -0.446791
vn 0.435591 0.490860 -0.754479
vn 0.483627 0.253578 -0.837703
vn 0.499985 0.000000 -0.866024
vn 0.837703 -0.253578 -0.483627
vn 0.241493 0.960326 -0.139409
vn 0.754479 -0.490860 -0.435591
vn 0.446791 0.856624 -0.257942
vn 0.621448 -0.696432 -0.358776
vn 0.621448 0.696432 -0.358776
vn 0.139409 -0.960326 -0.241493
vn 0.446791 -0.856624 -0.257942
vn 0.754479 0.490860 -0.435591
vn 0.837703 0.253578 -0.483627
vn 0.866024 0.000000 -0.499985
vn 0.967284 -0.253578 0.000000
vn 0.278848 0.960326 0.000000
vn 0.871212 -0.490860 0.000000
vn 0.515915 0.856624 0.000000
vn 0.717582 -0.696432 0.000000
vn 0.717582 0.696432 0.000000
vn 0.241493 -0.960326 -0.139409
vn 0.515915 -0.856624 0.000000
vn 0.871212 0.490860 0.000000
vn 0.967284 0.253578 0.000000
vn 0.866024 0.000000 0.499985
vn 0.837703 -0.253578 0.483627
vn 0.241493 0.960326 0.139409
vn 0.754479 -0.490860 0.435591
vn 0.446791 0.856624 0.257942
vn 0.621448 -0.696432 0.358776
vn 0.621448 0.696432 0.358776
vn 0.278848 -0.960326 0.000000
vn 0.446791 -0.856624 0.257942
vn 0.754479 0.490860 0.435591
vn 0.837703 0.253578 0.483627
vn 0.499985 0.000000 0.866024
vn 0.483627 -0.253578 0.837703
vn 0.139409 0.960326 0.241493
vn 0.435591 -0.490860 0.754479
vn 0.257942 0.856624 0.446791
vn 0.358776 -0.696432 0.621448
vn 0.358776 0.696432 0.621448
vn 0.241493 -0.960326 0.139409
vn 0.139409 -0.960326 0.241493
vn 0.435591 0.490860 0.754479
vn 0.483627 0.253578 0.837703
vn 0.000000 0.000000 0.999969
vn 0.000000 -0.253578 0.967284
vn 0.000000 0.960326 0.278848
vn 0.000000 -0.490860 0.871212
vn 0.000000 0.856624 0.515915
vn 0.257942 -0.856624 0.446791
vn 0.000000 -0.696432 0.717582
vn 0.000000 0.696432 0.717582
vn 0.000000 -0.856624 0.515915
vn 0.000000 0.490860 0.871212
vn 0.000000 0.253578 0.967284
vn -0.499985 0.000000 0.866024
vn -0.483627 -0.253578 0.837703
vn -0.435591 -0.490860 0.754479
vn -0.257942 0.856624 0.446791
vn -0.358776 -0.696432 0.621448
vn -0.358776 0.696432 0.621448
vn -0.257942 -0.856624 0.446791
vn -0.435591 0.490860 0.754479
vn 0.000000 -0.960326 0.278848
vn -0.139409 -0.960326 0.241493
vn -0.483627 0.253578 0.837703
vn -0.866024 0.000000 0.499985
vn -0.754479 -0.490860 0.435591
vn -0.139409 0.960326 0.241493
vn -0.446791 0.856624 0.257942
vn -0.621448 -0.696432 0.358776
vn -0.621448 0.696432 0.358776
vn -0.446791 -0.856624 0.257942
vn -0.754479 0.490860 0.435591
vn -0.837703 0.253578 0.483627
vn 0.000000 -0.999969 0.000000
vn -0.241493 -0.960326 0.139409
vn -0.241493 0.960326 0.139409
vn -0.837703 -0.253578 0.483627
usemtl Sphere
s 1
f 17//7 16//8 29//9
f 11//10 10//11 23//12
f 18//13 17//7 30//14
f 12//15 11//10 24//16
f 19//17 18//13 31//18
f 13//19 12//15 25//20
f 14//1 13//19 26//21
f 15//22 14//1 27//23
f 16//8 15//22 28//24
f 10//11 9//25 22//26
f 29//9 28//24 40//27
f 23//12 22//26 34//28
f 30//14 29//9 41//29
f 24//16 23//12 35//30
f 31//18 30//14 42//31
f 25//20 24//16 36//32
f 26//21 25//20 37//33
f 27//23 26//21 38//34
f 28//24 27//23 39//35
f 22//26 21//36 33//37
f 40//27 39//35 51//38
f 34//28 33//37 45//39
f 41//29 40//27 52//40
f 35//30 34//28 46//41
f 42//31 41//29 53//42
f 36//32 35//30 47//43
f 37//33 36//32 48//44
f 38//34 37//33 49//45
f 39//35 38//34 50//46
f 33//37 32//47 44//48
f 50//46 49//45 61//49
f 44//48 43//50 55//51
f 51//38 50//46 62//52
f 45//39 44//48 56//53
f 52//40 51//38 63//54
f 46//41 45//39 57//55
f 53//42 52//40 64//56
f 47//43 46//41 58//57
f 48//44 47//43 59//58
f 49//45 48//44 60//59
f 62//52 61//49 72//60
f 56//53 55//51 66//61
f 63//54 62//52 73//62
f 57//55 56//53 67//63
f 64//56 63//54 74//64
f 58//57 57//55 68//65
f 65//66 64//56 75//67
f 59//58 58//57 69//68
f 60//59 59//58 70//69
f 61//49 60//59 71//70
f 73//62 72//60 83//71
f 67//63 66//61 77//72
f 74//64 73//62 84//73
f 68//65 67//63 78//74
f 75//67 74//64 85//75
f 69//68 68//65 79//76
f 76//77 75//67 86//78
f 70//69 69//68 80//79
f 71//70 70//69 81//80
f 72//60 71//70 82//3
f 83//71 82//3 93//81
f 84//73 83//71 94//82
f 78//74 77//72 88//83
f 85//75 84//73 95//84
f 79//76 78//74 89//85
f 86//78 85//75 96//86
f 80//79 79//76 90//87
f 87//88 86//78 97//89
f 81//80 80//79 91//90
f 82//3 81//80 92//91
f 94//82 93//81 104//92
f 95//84 94//82 105//93
f 89//85 88//83 99//94
f 96//86 95//84 106//95
f 90//87 89//85 100//96
f 97//89 96//86 107//97
f 91//90 90//87 101//98
f 98//99 97//89 109//100
f 92//91 91//90 102//101
f 93//81 92//91 103//102
f 105//93 104//92 115//103
f 106//95 105//93 116//104
f 100//96 99//94 110//105
f 107//97 106//95 117//106
f 101//98 100//96 111//107
f 108//108 107//97 118//109
f 102//101 101//98 112//110
f 109//100 108//108 119//111
f 103//102 102//101 113//112
f 104//92 103//102 114//113
f 115//103 114//113 126//114
f 116//104 115//103 127//115
f 117//106 116//104 128//116
f 111//107 110//105 122//117
f 118//109 117//106 129//118
f 112//110 111//107 123//119
f 119//111 118//109 130//120
f 113//112 112//110 124//121
f 120//122 119//111 131//123
f 114//113 113//112 125//124
f 126//114 125//124 137//125
f 127//115 126//114 137//125
f 128//116 127//115 139//126
f 122//117 121//127 133//128
f 129//118 128//116 140//129
f 123//119 122//117 134//130
f 130//120 129//118 141//131
f 124//121 123//119 135//132
f 131//123 130//120 141//131
f 125//124 124//121 136//133
f 20//134 19//17 31//18
f 9//25 54//6 21//36
f 20//134 31//18 42//31
f 21//36 54//6 32//47
f 20//134 42//31 53//42
f 32//47 54//6 43//50
f 20//134 53//42 65//66
f 43//50 54//6 55//51
f 20//134 65//66 76//77
f 55//51 54//6 66//61
f 20//134 76//77 87//88
f 66//61 54//6 77//72
f 77//72 54//6 88//83
f 20//134 87//88 98//99
f 88//83 54//6 99//94
f 20//134 98//99 109//100
f 99//94 54//6 110//105
f 20//134 109//100 120//122
f 110//105 54//6 121//127
f 20//134 120//122 131//123
f 20//134 131//123 142//135
f 121//127 54//6 132//136
f 20//134 142//135 19//17
f 137//125 136//133 14//1
f 138//137 137//125 14//1
f 132//136 54//6 9//25
f 139//126 138//137 16//8
f 133//128 132//136 10//11
f 140//129 139//126 17//7
f 134//130 133//128 11//10
f 141//131 140//129 18//13
f 135//132 134//130 12//15
f 142//135 141//131 19//17
f 136//133 135//132 13//19
f 16//8 28//24 29//9
f 10//11 22//26 23//12
f 17//7 29//9 30//14
f 11//10 23//12 24//16
f 18//13 30//14 31//18
f 12//15 24//16 25//20
f 13//19 25//20 26//21
f 14//1 26//21 27//23
f 15//22 27//23 28//24
f 9//25 21//36 22//26
f 28//24 39//35 40//27
f 22//26 33//37 34//28
f 29//9 40//27 41//29
f 23//12 34//28 35//30
f 30//14 41//29 42//31
f 24//16 35//30 36//32
f 25//20 36//32 37//33
f 26//21 37//33 38//34
f 27//23 38//34 39//35
f 21//36 32//47 33//37
f 39//35 50//46 51//38
f 33//37 44//48 45//39
f 40//27 51//38 52//40
f 34//28 45//39 46//41
f 41//29 52//40 53//42
f 35//30 46//41 47//43
f 36//32 47//43 48//44
f 37//33 48//44 49//45
f 38//34 49//45 50//46
f 32//47 43//50 44//48
f 62//52 50//46 61//49
f 56//53 44//48 55//51
f 63//54 51//38 62//52
f 57//55 45//39 56//53
f 64//56 52//40 63//54
f 58//57 46//41 57//55
f 65//66 53//42 64//56
f 59//58 47//43 58//57
f 60//59 48//44 59//58
f 61//49 49//45 60//59
f 73//62 62//52 72//60
f 67//63 56//53 66//61
f 74//64 63//54 73//62
f 68//65 57//55 67//63
f 75//67 64//56 74//64
f 69//68 58//57 68//65
f 76//77 65//66 75//67
f 70//69 59//58 69//68
f 71//70 60//59 70//69
f 72//60 61//49 71//70
f 84//73 73//62 83//71
f 78//74 67//63 77//72
f 85//75 74//64 84//73
f 79//76 68//65 78//74
f 86//78 75//67 85//75
f 80//79 69//68 79//76
f 87//88 76//77 86//78
f 81//80 70//69 80//79
f 82//3 71//70 81//80
f 83//71 72//60 82//3
f 94//82 83//71 93//81
f 95//84 84//73 94//82
f 89//85 78//74 88//83
f 96//86 85//75 95//84
f 90//87 79//76 89//85
f 97//89 86//78 96//86
f 91//90 80//79 90//87
f 98//99 87//88 97//89
f 92//91 81//80 91//90
f 93//81 82//3 92//91
f 105//93 94//82 104//92
f 106//95 95//84 105//93
f 100//96 89//85 99//94
f 107//97 96//86 106//95
f 101//98 90//87 100//96
f 108//108 97//89 107//97
f 102//101 91//90 101//98
f 97//89 108//108 109//100
f 103//102 92//91 102//101
f 104//92 93//81 103//102
f 116//104 105//93 115//103
f 117//106 106//95 116//104
f 111//107 100//96 110//105
f 118//109 107//97 117//106
f 112//110 101//98 111//107
f 119//111 108//108 118//109
f 113//112 102//101 112//110
f 120//122 109//100 119//111
f 114//113 103//102 113//112
f 115//103 104//92 114//113
f 114//113 125//124 126//114
f 115//103 126//114 127//115
f 116//104 127//115 128//116
f 110//105 121//127 122//117
f 117//106 128//116 129//118
f 111//107 122//117 123//119
f 118//109 129//118 130//120
f 112//110 123//119 124//121
f 119//111 130//120 131//123
f 113//112 124//121 125//124
f 125//124 136//133 137//125
f 138//137 127//115 137//125
f 127//115 138//137 139//126
f 121//127 132//136 133//128
f 128//116 139//126 140//129
f 122//117 133//128 134//130
f 129//118 140//129 141//131
f 123//119 134//130 135//132
f 142//135 131//123 141//131
f 124//121 135//132 136//133
f 136//133 13//19 14//1
f 15//22 138//137 14//1
f 138//137 15//22 16//8
f 132//136 9//25 10//11
f 139//126 16//8 17//7
f 133//128 10//11 11//10
f 140//129 17//7 18//13
f 134//130 11//10 12//15
f 141//131 18//13 19//17
f 135//132 12//15 13//19
o Walls
v -1.750000 0.000000 3.500000
v -1.750000 0.000000 0.000000
v 1.750000 0.000000 0.000000
v 1.750000 0.000000 3.500000
v -1.750000 2.000000 3.500000
v -1.750000 2.000000 0.000000
v 1.750000 2.000000 0.000000
v 1.750000 2.000000 3.500000
usemtl Bottom
s off
f 143//6 146//6 145//6
f 144//6 143//6 145//6
usemtl RightWall
f 149//1 145//1 150//1
f 145//1 146//1 150//1
usemtl LeftWall
f 147//3 143//3 144//3
f 148//3 147//3 144//3
usemtl Wall
f 148//4 144//4 145//4
f 149//4 148//4 145//4
